<svg version="1.1"
	 xmlns="http://www.w3.org/2000/svg" xmlns:xlink="http://www.w3.org/1999/xlink" xmlns:a="http://ns.adobe.com/AdobeSVGViewerExtensions/3.0/"
	 x="0px" y="0px" width="403.979px" height="149.559px" viewBox="0 0 403.979 149.559" enable-background="new 0 0 403.979 149.559"
	 xml:space="preserve">
<defs>
</defs>
<path fill="#F64747" d="M284.433,37.82c24.38,0,38.914,15.938,35.789,41.569c-3.126,25.003-19.849,40.789-45.009,40.789
	c-24.38,0-38.914-15.941-35.944-41.415C242.238,53.758,259.429,37.82,284.433,37.82z"/>
<circle fill="#FF7B7B" cx="280.18" cy="78.436" r="18.924"/>
<path fill="#F64747" d="M57.197,38.6l-8.596,68.762c-3.281,25.788-16.252,42.197-47.821,42.197L0,131.585
	c15.003-0.625,18.596-11.095,20.159-22.973l8.596-67.98L57.197,38.6z M61.104,15.158c0,8.283-6.877,15.004-15.315,15.004
	c-8.283,0-15.003-6.721-15.003-15.004C30.786,6.719,37.506,0,45.789,0C54.228,0,61.104,6.719,61.104,15.158z"/>
<path fill="#F64747" d="M97.044,38.601l-9.845,79.702H58.756l9.846-77.67L97.044,38.601z M100.796,15.16
	c0,8.282-6.877,15.003-15.315,15.003c-8.283,0-15.003-6.721-15.003-15.003C70.478,6.72,77.198,0,85.48,0
	C93.919,0,100.796,6.72,100.796,15.16z"/>
<path fill="#F64747" d="M115.169,41.569l0.938-6.564c2.5-15.627,9.845-26.568,34.537-26.568c3.438,0,45.321,0,45.321,0
	l-12.346,56.73l-3.125,10.627l1.875,0.468c7.658-28.286,18.754-38.443,35.944-38.443c15.941,0,26.568,15.158,22.505,40.319
	c-4.064,25.942-22.817,42.04-44.384,42.04c-4.219,0-11.251-0.625-21.722-4.065l-11.095,2.189h-7.189l11.409-91.11
	c-3.439-0.625-7.032-0.939-10.159-0.939c-8.908,0-12.971,3.126-13.752,10.159l-0.625,5.47h13.44l-3.906,18.128l-11.565-1.094
	l-10.94,88.14l-28.286,2.501l10.94-89.236l-11.095-1.405l1.876-15.472L115.169,41.569z M192.057,104.549
	c11.096,0,20.16-16.566,21.411-32.506c0.468-7.187,0-15.941-6.721-15.941c-8.751,0-15.784,14.692-20.472,47.353
	C188.151,104.238,190.026,104.549,192.057,104.549z"/>
<path fill="#F64747" d="M350.846,39.539l5.782,22.034c0.468,1.876,0.782,3.595,0.782,6.564l1.248,0.157l13.91-28.755h31.411
	l-27.036,38.443l19.067,40.321h-32.506l-6.564-23.912c-0.625-2.344-0.78-4.531-0.625-6.25l-1.25-0.312l-15.47,30.474H307.87
	l28.598-40.789l-17.659-37.975H350.846z"/>
<g>
	<path fill="#FF7B7B" d="M276.088,112.777c-9.985,0-18.115-3.205-23.516-9.271c-5.521-6.202-7.8-14.978-6.587-25.381
		c2.493-20.987,16.879-34.024,37.549-34.024c9.995,0,18.121,3.211,23.501,9.285c5.511,6.225,7.751,15.042,6.475,25.499
		C310.896,99.793,296.558,112.777,276.088,112.777z M283.534,46.272c-19.48,0-33.04,12.304-35.393,32.106
		c-1.138,9.769,0.956,17.958,6.053,23.685c4.977,5.589,12.547,8.544,21.894,8.544c19.58,0,32.763-11.958,35.268-31.987
		c1.198-9.817-0.858-18.047-5.947-23.795C300.454,49.229,292.889,46.272,283.534,46.272z"/>
</g>
<g>
	<circle fill="#FFCCCC" cx="277.989" cy="73.665" r="9.29"/>
	<circle fill="#FFCCCC" cx="287.729" cy="87.814" r="2.766"/>
</g>
</svg>
